<svg width="410" height="410" viewBox="0 0 410 410" fill="none" xmlns="http://www.w3.org/2000/svg">
<rect x="3.5" y="3.5" width="403" height="403" rx="59.5" fill="#171717"/>
<rect x="3.5" y="3.5" width="403" height="403" rx="59.5" stroke="url(#paint0_linear_41_15)" stroke-width="7"/>
<rect x="3.5" y="3.5" width="403" height="403" rx="59.5" stroke="url(#paint1_linear_41_15)" stroke-width="7"/>
<g filter="url(#filter0_d_41_15)">
<path d="M118.637 56.4297V63.9135H78.6554V97.5905H112.406V105.074H78.6554V146.622H69.5686V56.4297H118.637Z" fill="white"/>
<path d="M118.637 56.4297V63.9135H78.6554V97.5905H112.406V105.074H78.6554V146.622H69.5686V56.4297H118.637Z" fill="url(#paint2_linear_41_15)"/>
<path d="M142.674 51.1394V146.622H133.587V51.1394H142.674Z" fill="white"/>
<path d="M142.674 51.1394V146.622H133.587V51.1394H142.674Z" fill="url(#paint3_linear_41_15)"/>
<path d="M224.651 76.1714V146.622H215.565V134.235C213.488 138.622 210.286 141.977 205.959 144.3C201.632 146.622 196.785 147.783 191.42 147.783C182.939 147.783 176.015 145.203 170.65 140.042C165.284 134.794 162.602 127.225 162.602 117.332V76.1714H171.559V116.3C171.559 123.956 173.463 129.805 177.27 133.848C181.165 137.891 186.444 139.913 193.107 139.913C199.944 139.913 205.396 137.762 209.463 133.461C213.531 129.16 215.565 122.838 215.565 114.494V76.1714H224.651Z" fill="white"/>
<path d="M224.651 76.1714V146.622H215.565V134.235C213.488 138.622 210.286 141.977 205.959 144.3C201.632 146.622 196.785 147.783 191.42 147.783C182.939 147.783 176.015 145.203 170.65 140.042C165.284 134.794 162.602 127.225 162.602 117.332V76.1714H171.559V116.3C171.559 123.956 173.463 129.805 177.27 133.848C181.165 137.891 186.444 139.913 193.107 139.913C199.944 139.913 205.396 137.762 209.463 133.461C213.531 129.16 215.565 122.838 215.565 114.494V76.1714H224.651Z" fill="url(#paint4_linear_41_15)"/>
<path d="M249.94 62.8812C248.123 62.8812 246.565 62.2361 245.267 60.9458C243.969 59.6555 243.32 58.0641 243.32 56.1716C243.32 54.2792 243.969 52.7308 245.267 51.5265C246.565 50.2362 248.123 49.5911 249.94 49.5911C251.758 49.5911 253.315 50.2362 254.613 51.5265C255.912 52.7308 256.561 54.2792 256.561 56.1716C256.561 58.0641 255.912 59.6555 254.613 60.9458C253.315 62.2361 251.758 62.8812 249.94 62.8812ZM254.484 76.1714V146.622H245.397V76.1714H254.484Z" fill="white"/>
<path d="M249.94 62.8812C248.123 62.8812 246.565 62.2361 245.267 60.9458C243.969 59.6555 243.32 58.0641 243.32 56.1716C243.32 54.2792 243.969 52.7308 245.267 51.5265C246.565 50.2362 248.123 49.5911 249.94 49.5911C251.758 49.5911 253.315 50.2362 254.613 51.5265C255.912 52.7308 256.561 54.2792 256.561 56.1716C256.561 58.0641 255.912 59.6555 254.613 60.9458C253.315 62.2361 251.758 62.8812 249.94 62.8812ZM254.484 76.1714V146.622H245.397V76.1714H254.484Z" fill="url(#paint5_linear_41_15)"/>
<path d="M270.907 111.268C270.907 104.042 272.378 97.7195 275.32 92.3002C278.263 86.7949 282.287 82.5799 287.393 79.6552C292.585 76.6445 298.427 75.1392 304.917 75.1392C311.148 75.1392 316.773 76.6445 321.793 79.6552C326.812 82.6659 330.49 86.5799 332.827 91.397V51.1394H341.914V146.622H332.827V130.88C330.663 135.784 327.115 139.827 322.182 143.009C317.249 146.106 311.451 147.654 304.788 147.654C298.297 147.654 292.455 146.149 287.263 143.138C282.157 140.128 278.133 135.87 275.191 130.364C272.335 124.859 270.907 118.493 270.907 111.268ZM332.827 111.397C332.827 105.719 331.658 100.73 329.322 96.4292C326.985 92.1282 323.783 88.8164 319.716 86.4939C315.735 84.1713 311.321 83.01 306.475 83.01C301.456 83.01 296.956 84.1283 292.975 86.3648C288.994 88.6014 285.835 91.8701 283.498 96.1712C281.248 100.386 280.123 105.418 280.123 111.268C280.123 117.031 281.248 122.106 283.498 126.493C285.835 130.794 288.994 134.106 292.975 136.429C296.956 138.665 301.456 139.784 306.475 139.784C311.321 139.784 315.735 138.622 319.716 136.3C323.783 133.977 326.985 130.665 329.322 126.364C331.658 122.063 332.827 117.074 332.827 111.397Z" fill="white"/>
<path d="M270.907 111.268C270.907 104.042 272.378 97.7195 275.32 92.3002C278.263 86.7949 282.287 82.5799 287.393 79.6552C292.585 76.6445 298.427 75.1392 304.917 75.1392C311.148 75.1392 316.773 76.6445 321.793 79.6552C326.812 82.6659 330.49 86.5799 332.827 91.397V51.1394H341.914V146.622H332.827V130.88C330.663 135.784 327.115 139.827 322.182 143.009C317.249 146.106 311.451 147.654 304.788 147.654C298.297 147.654 292.455 146.149 287.263 143.138C282.157 140.128 278.133 135.87 275.191 130.364C272.335 124.859 270.907 118.493 270.907 111.268ZM332.827 111.397C332.827 105.719 331.658 100.73 329.322 96.4292C326.985 92.1282 323.783 88.8164 319.716 86.4939C315.735 84.1713 311.321 83.01 306.475 83.01C301.456 83.01 296.956 84.1283 292.975 86.3648C288.994 88.6014 285.835 91.8701 283.498 96.1712C281.248 100.386 280.123 105.418 280.123 111.268C280.123 117.031 281.248 122.106 283.498 126.493C285.835 130.794 288.994 134.106 292.975 136.429C296.956 138.665 301.456 139.784 306.475 139.784C311.321 139.784 315.735 138.622 319.716 136.3C323.783 133.977 326.985 130.665 329.322 126.364C331.658 122.063 332.827 117.074 332.827 111.397Z" fill="url(#paint6_linear_41_15)"/>
<path d="M131.42 155.676V270.255C131.42 279.636 133.43 287.102 137.451 292.654C141.663 298.015 148.363 300.695 157.552 300.695C166.742 300.695 173.538 298.015 177.941 292.654C182.345 287.102 184.546 279.636 184.546 270.255V155.676H248.01V270.255C248.01 289.591 243.99 306.151 235.949 319.935C227.908 333.528 216.9 343.77 202.925 350.662C188.949 357.554 173.347 361 156.117 361C138.887 361 123.571 357.554 110.17 350.662C96.9604 343.77 86.6224 333.528 79.156 319.935C71.6897 306.343 67.9565 289.783 67.9565 270.255V155.676H131.42Z" fill="white"/>
<path d="M131.42 155.676V270.255C131.42 279.636 133.43 287.102 137.451 292.654C141.663 298.015 148.363 300.695 157.552 300.695C166.742 300.695 173.538 298.015 177.941 292.654C182.345 287.102 184.546 279.636 184.546 270.255V155.676H248.01V270.255C248.01 289.591 243.99 306.151 235.949 319.935C227.908 333.528 216.9 343.77 202.925 350.662C188.949 357.554 173.347 361 156.117 361C138.887 361 123.571 357.554 110.17 350.662C96.9604 343.77 86.6224 333.528 79.156 319.935C71.6897 306.343 67.9565 289.783 67.9565 270.255V155.676H131.42Z" fill="url(#paint7_linear_41_15)"/>
<path d="M339.257 155.676V358.99H275.506V155.676H339.257Z" fill="white"/>
<path d="M339.257 155.676V358.99H275.506V155.676H339.257Z" fill="url(#paint8_linear_41_15)"/>
</g>
<defs>
<filter id="filter0_d_41_15" x="63.9565" y="49.5911" width="281.957" height="319.409" filterUnits="userSpaceOnUse" color-interpolation-filters="sRGB">
<feFlood flood-opacity="0" result="BackgroundImageFix"/>
<feColorMatrix in="SourceAlpha" type="matrix" values="0 0 0 0 0 0 0 0 0 0 0 0 0 0 0 0 0 0 127 0" result="hardAlpha"/>
<feOffset dy="4"/>
<feGaussianBlur stdDeviation="2"/>
<feComposite in2="hardAlpha" operator="out"/>
<feColorMatrix type="matrix" values="0 0 0 0 0 0 0 0 0 0 0 0 0 0 0 0 0 0 0.25 0"/>
<feBlend mode="normal" in2="BackgroundImageFix" result="effect1_dropShadow_41_15"/>
<feBlend mode="normal" in="SourceGraphic" in2="effect1_dropShadow_41_15" result="shape"/>
</filter>
<linearGradient id="paint0_linear_41_15" x1="59.5" y1="-30" x2="350" y2="442.5" gradientUnits="userSpaceOnUse">
<stop stop-color="#66F5B9"/>
<stop offset="1" stop-color="#45D0FB"/>
</linearGradient>
<linearGradient id="paint1_linear_41_15" x1="-120.862" y1="-108.835" x2="492.519" y2="584.813" gradientUnits="userSpaceOnUse">
<stop stop-color="#FF820F"/>
<stop offset="1" stop-color="#FF1E1E"/>
</linearGradient>
<linearGradient id="paint2_linear_41_15" x1="-18.3675" y1="20.8685" x2="70.333" y2="299.081" gradientUnits="userSpaceOnUse">
<stop stop-color="#FF820F"/>
<stop offset="1" stop-color="#FF1E1E"/>
</linearGradient>
<linearGradient id="paint3_linear_41_15" x1="-18.3675" y1="20.8685" x2="70.333" y2="299.081" gradientUnits="userSpaceOnUse">
<stop stop-color="#FF820F"/>
<stop offset="1" stop-color="#FF1E1E"/>
</linearGradient>
<linearGradient id="paint4_linear_41_15" x1="-18.3675" y1="20.8685" x2="70.333" y2="299.081" gradientUnits="userSpaceOnUse">
<stop stop-color="#FF820F"/>
<stop offset="1" stop-color="#FF1E1E"/>
</linearGradient>
<linearGradient id="paint5_linear_41_15" x1="-18.3675" y1="20.8685" x2="70.333" y2="299.081" gradientUnits="userSpaceOnUse">
<stop stop-color="#FF820F"/>
<stop offset="1" stop-color="#FF1E1E"/>
</linearGradient>
<linearGradient id="paint6_linear_41_15" x1="-18.3675" y1="20.8685" x2="70.333" y2="299.081" gradientUnits="userSpaceOnUse">
<stop stop-color="#FF820F"/>
<stop offset="1" stop-color="#FF1E1E"/>
</linearGradient>
<linearGradient id="paint7_linear_41_15" x1="-19.6423" y1="95.616" x2="276.588" y2="538.254" gradientUnits="userSpaceOnUse">
<stop stop-color="#FF820F"/>
<stop offset="1" stop-color="#FF1E1E"/>
</linearGradient>
<linearGradient id="paint8_linear_41_15" x1="-19.6423" y1="95.616" x2="276.588" y2="538.254" gradientUnits="userSpaceOnUse">
<stop stop-color="#FF820F"/>
<stop offset="1" stop-color="#FF1E1E"/>
</linearGradient>
</defs>
</svg>
