<svg width="1379" height="410" viewBox="0 0 1379 410" fill="none" xmlns="http://www.w3.org/2000/svg">
<rect x="3.5" y="3.5" width="1372" height="403" rx="59.5" fill="#171717"/>
<rect x="3.5" y="3.5" width="1372" height="403" rx="59.5" stroke="url(#paint0_linear_41_19)" stroke-width="7"/>
<rect x="3.5" y="3.5" width="1372" height="403" rx="59.5" stroke="url(#paint1_linear_41_19)" stroke-width="7"/>
<g filter="url(#filter0_d_41_19)">
<path d="M118.637 56.4297V63.9135H78.6554V97.5905H112.406V105.074H78.6554V146.622H69.5686V56.4297H118.637Z" fill="white"/>
<path d="M118.637 56.4297V63.9135H78.6554V97.5905H112.406V105.074H78.6554V146.622H69.5686V56.4297H118.637Z" fill="url(#paint2_linear_41_19)"/>
<path d="M142.674 51.1394V146.622H133.587V51.1394H142.674Z" fill="white"/>
<path d="M142.674 51.1394V146.622H133.587V51.1394H142.674Z" fill="url(#paint3_linear_41_19)"/>
<path d="M224.651 76.1714V146.622H215.565V134.235C213.488 138.622 210.286 141.977 205.959 144.3C201.632 146.622 196.785 147.783 191.42 147.783C182.939 147.783 176.015 145.203 170.65 140.042C165.284 134.794 162.602 127.225 162.602 117.332V76.1714H171.559V116.3C171.559 123.956 173.463 129.805 177.27 133.848C181.165 137.891 186.444 139.913 193.107 139.913C199.944 139.913 205.396 137.762 209.463 133.461C213.531 129.16 215.565 122.838 215.565 114.494V76.1714H224.651Z" fill="white"/>
<path d="M224.651 76.1714V146.622H215.565V134.235C213.488 138.622 210.286 141.977 205.959 144.3C201.632 146.622 196.785 147.783 191.42 147.783C182.939 147.783 176.015 145.203 170.65 140.042C165.284 134.794 162.602 127.225 162.602 117.332V76.1714H171.559V116.3C171.559 123.956 173.463 129.805 177.27 133.848C181.165 137.891 186.444 139.913 193.107 139.913C199.944 139.913 205.396 137.762 209.463 133.461C213.531 129.16 215.565 122.838 215.565 114.494V76.1714H224.651Z" fill="url(#paint4_linear_41_19)"/>
<path d="M249.94 62.8812C248.123 62.8812 246.565 62.2361 245.267 60.9458C243.969 59.6555 243.32 58.0641 243.32 56.1716C243.32 54.2792 243.969 52.7308 245.267 51.5265C246.565 50.2362 248.123 49.5911 249.94 49.5911C251.758 49.5911 253.315 50.2362 254.613 51.5265C255.912 52.7308 256.561 54.2792 256.561 56.1716C256.561 58.0641 255.912 59.6555 254.613 60.9458C253.315 62.2361 251.758 62.8812 249.94 62.8812ZM254.484 76.1714V146.622H245.397V76.1714H254.484Z" fill="white"/>
<path d="M249.94 62.8812C248.123 62.8812 246.565 62.2361 245.267 60.9458C243.969 59.6555 243.32 58.0641 243.32 56.1716C243.32 54.2792 243.969 52.7308 245.267 51.5265C246.565 50.2362 248.123 49.5911 249.94 49.5911C251.758 49.5911 253.315 50.2362 254.613 51.5265C255.912 52.7308 256.561 54.2792 256.561 56.1716C256.561 58.0641 255.912 59.6555 254.613 60.9458C253.315 62.2361 251.758 62.8812 249.94 62.8812ZM254.484 76.1714V146.622H245.397V76.1714H254.484Z" fill="url(#paint5_linear_41_19)"/>
<path d="M270.907 111.268C270.907 104.042 272.378 97.7195 275.32 92.3002C278.263 86.7949 282.287 82.5799 287.393 79.6552C292.585 76.6445 298.427 75.1392 304.917 75.1392C311.148 75.1392 316.773 76.6445 321.793 79.6552C326.812 82.6659 330.49 86.5799 332.827 91.397V51.1394H341.914V146.622H332.827V130.88C330.663 135.784 327.115 139.827 322.182 143.009C317.249 146.106 311.451 147.654 304.788 147.654C298.297 147.654 292.455 146.149 287.263 143.138C282.157 140.128 278.133 135.87 275.191 130.364C272.335 124.859 270.907 118.493 270.907 111.268ZM332.827 111.397C332.827 105.719 331.658 100.73 329.322 96.4292C326.985 92.1282 323.783 88.8164 319.716 86.4939C315.735 84.1713 311.321 83.01 306.475 83.01C301.456 83.01 296.956 84.1283 292.975 86.3648C288.994 88.6014 285.835 91.8701 283.498 96.1712C281.248 100.386 280.123 105.418 280.123 111.268C280.123 117.031 281.248 122.106 283.498 126.493C285.835 130.794 288.994 134.106 292.975 136.429C296.956 138.665 301.456 139.784 306.475 139.784C311.321 139.784 315.735 138.622 319.716 136.3C323.783 133.977 326.985 130.665 329.322 126.364C331.658 122.063 332.827 117.074 332.827 111.397Z" fill="white"/>
<path d="M270.907 111.268C270.907 104.042 272.378 97.7195 275.32 92.3002C278.263 86.7949 282.287 82.5799 287.393 79.6552C292.585 76.6445 298.427 75.1392 304.917 75.1392C311.148 75.1392 316.773 76.6445 321.793 79.6552C326.812 82.6659 330.49 86.5799 332.827 91.397V51.1394H341.914V146.622H332.827V130.88C330.663 135.784 327.115 139.827 322.182 143.009C317.249 146.106 311.451 147.654 304.788 147.654C298.297 147.654 292.455 146.149 287.263 143.138C282.157 140.128 278.133 135.87 275.191 130.364C272.335 124.859 270.907 118.493 270.907 111.268ZM332.827 111.397C332.827 105.719 331.658 100.73 329.322 96.4292C326.985 92.1282 323.783 88.8164 319.716 86.4939C315.735 84.1713 311.321 83.01 306.475 83.01C301.456 83.01 296.956 84.1283 292.975 86.3648C288.994 88.6014 285.835 91.8701 283.498 96.1712C281.248 100.386 280.123 105.418 280.123 111.268C280.123 117.031 281.248 122.106 283.498 126.493C285.835 130.794 288.994 134.106 292.975 136.429C296.956 138.665 301.456 139.784 306.475 139.784C311.321 139.784 315.735 138.622 319.716 136.3C323.783 133.977 326.985 130.665 329.322 126.364C331.658 122.063 332.827 117.074 332.827 111.397Z" fill="url(#paint6_linear_41_19)"/>
<path d="M131.42 155.676V270.255C131.42 279.636 133.43 287.102 137.451 292.654C141.663 298.015 148.363 300.695 157.552 300.695C166.742 300.695 173.538 298.015 177.941 292.654C182.345 287.102 184.546 279.636 184.546 270.255V155.676H248.01V270.255C248.01 289.591 243.99 306.151 235.949 319.935C227.908 333.528 216.9 343.77 202.925 350.662C188.949 357.554 173.347 361 156.117 361C138.887 361 123.571 357.554 110.17 350.662C96.9604 343.77 86.6224 333.528 79.156 319.935C71.6897 306.343 67.9565 289.783 67.9565 270.255V155.676H131.42Z" fill="white"/>
<path d="M131.42 155.676V270.255C131.42 279.636 133.43 287.102 137.451 292.654C141.663 298.015 148.363 300.695 157.552 300.695C166.742 300.695 173.538 298.015 177.941 292.654C182.345 287.102 184.546 279.636 184.546 270.255V155.676H248.01V270.255C248.01 289.591 243.99 306.151 235.949 319.935C227.908 333.528 216.9 343.77 202.925 350.662C188.949 357.554 173.347 361 156.117 361C138.887 361 123.571 357.554 110.17 350.662C96.9604 343.77 86.6224 333.528 79.156 319.935C71.6897 306.343 67.9565 289.783 67.9565 270.255V155.676H131.42Z" fill="url(#paint7_linear_41_19)"/>
<path d="M339.257 155.676V358.99H275.506V155.676H339.257Z" fill="white"/>
<path d="M339.257 155.676V358.99H275.506V155.676H339.257Z" fill="url(#paint8_linear_41_19)"/>
</g>
<path d="M441.736 234.64V268H436.264V245.152L426.088 268H422.296L412.072 245.152V268H406.6V234.64H412.504L424.216 260.8L435.88 234.64H441.736ZM451.712 238.048C450.72 238.048 449.888 237.712 449.216 237.04C448.544 236.368 448.208 235.536 448.208 234.544C448.208 233.552 448.544 232.72 449.216 232.048C449.888 231.376 450.72 231.04 451.712 231.04C452.672 231.04 453.488 231.376 454.16 232.048C454.832 232.72 455.168 233.552 455.168 234.544C455.168 235.536 454.832 236.368 454.16 237.04C453.488 237.712 452.672 238.048 451.712 238.048ZM454.4 241.552V268H448.928V241.552H454.4ZM474.928 241.12C477.008 241.12 478.864 241.552 480.496 242.416C482.16 243.28 483.456 244.56 484.384 246.256C485.312 247.952 485.776 250 485.776 252.4V268H480.352V253.216C480.352 250.848 479.76 249.04 478.576 247.792C477.392 246.512 475.776 245.872 473.728 245.872C471.68 245.872 470.048 246.512 468.832 247.792C467.648 249.04 467.056 250.848 467.056 253.216V268H461.584V241.552H467.056V244.576C467.952 243.488 469.088 242.64 470.464 242.032C471.872 241.424 473.36 241.12 474.928 241.12ZM516.996 254.128C516.996 255.12 516.932 256.016 516.804 256.816H496.596C496.756 258.928 497.54 260.624 498.948 261.904C500.356 263.184 502.084 263.824 504.132 263.824C507.076 263.824 509.156 262.592 510.372 260.128H516.276C515.476 262.56 514.02 264.56 511.908 266.128C509.828 267.664 507.236 268.432 504.132 268.432C501.604 268.432 499.332 267.872 497.316 266.752C495.332 265.6 493.764 264 492.612 261.952C491.492 259.872 490.932 257.472 490.932 254.752C490.932 252.032 491.476 249.648 492.564 247.6C493.684 245.52 495.236 243.92 497.22 242.8C499.236 241.68 501.54 241.12 504.132 241.12C506.628 241.12 508.852 241.664 510.804 242.752C512.756 243.84 514.276 245.376 515.364 247.36C516.452 249.312 516.996 251.568 516.996 254.128ZM511.284 252.4C511.252 250.384 510.532 248.768 509.124 247.552C507.716 246.336 505.972 245.728 503.892 245.728C502.004 245.728 500.388 246.336 499.044 247.552C497.7 248.736 496.9 250.352 496.644 252.4H511.284ZM520.557 254.752C520.557 252.032 521.101 249.648 522.189 247.6C523.309 245.52 524.845 243.92 526.797 242.8C528.749 241.68 530.989 241.12 533.517 241.12C536.717 241.12 539.357 241.888 541.437 243.424C543.549 244.928 544.973 247.088 545.709 249.904H539.805C539.325 248.592 538.557 247.568 537.501 246.832C536.445 246.096 535.117 245.728 533.517 245.728C531.277 245.728 529.485 246.528 528.141 248.128C526.829 249.696 526.173 251.904 526.173 254.752C526.173 257.6 526.829 259.824 528.141 261.424C529.485 263.024 531.277 263.824 533.517 263.824C536.685 263.824 538.781 262.432 539.805 259.648H545.709C544.941 262.336 543.501 264.48 541.389 266.08C539.277 267.648 536.653 268.432 533.517 268.432C530.989 268.432 528.749 267.872 526.797 266.752C524.845 265.6 523.309 264 522.189 261.952C521.101 259.872 520.557 257.472 520.557 254.752ZM556.635 245.392C557.435 244.048 558.491 243.008 559.803 242.272C561.147 241.504 562.731 241.12 564.555 241.12V246.784H563.163C561.019 246.784 559.387 247.328 558.267 248.416C557.179 249.504 556.635 251.392 556.635 254.08V268H551.163V241.552H556.635V245.392ZM567.76 254.656C567.76 252 568.304 249.648 569.392 247.6C570.512 245.552 572.016 243.968 573.904 242.848C575.824 241.696 577.936 241.12 580.24 241.12C582.32 241.12 584.128 241.536 585.664 242.368C587.232 243.168 588.48 244.176 589.408 245.392V241.552H594.928V268H589.408V264.064C588.48 265.312 587.216 266.352 585.616 267.184C584.016 268.016 582.192 268.432 580.144 268.432C577.872 268.432 575.792 267.856 573.904 266.704C572.016 265.52 570.512 263.888 569.392 261.808C568.304 259.696 567.76 257.312 567.76 254.656ZM589.408 254.752C589.408 252.928 589.024 251.344 588.256 250C587.52 248.656 586.544 247.632 585.328 246.928C584.112 246.224 582.8 245.872 581.392 245.872C579.984 245.872 578.672 246.224 577.456 246.928C576.24 247.6 575.248 248.608 574.48 249.952C573.744 251.264 573.376 252.832 573.376 254.656C573.376 256.48 573.744 258.08 574.48 259.456C575.248 260.832 576.24 261.888 577.456 262.624C578.704 263.328 580.016 263.68 581.392 263.68C582.8 263.68 584.112 263.328 585.328 262.624C586.544 261.92 587.52 260.896 588.256 259.552C589.024 258.176 589.408 256.576 589.408 254.752ZM613.204 246.016H608.308V268H602.788V246.016H599.668V241.552H602.788V239.68C602.788 236.64 603.588 234.432 605.188 233.056C606.82 231.648 609.364 230.944 612.82 230.944V235.504C611.156 235.504 609.988 235.824 609.316 236.464C608.644 237.072 608.308 238.144 608.308 239.68V241.552H613.204V246.016ZM624.437 246.016V260.656C624.437 261.648 624.661 262.368 625.109 262.816C625.589 263.232 626.389 263.44 627.509 263.44H630.869V268H626.549C624.085 268 622.197 267.424 620.885 266.272C619.573 265.12 618.917 263.248 618.917 260.656V246.016H615.797V241.552H618.917V234.976H624.437V241.552H630.869V246.016H624.437ZM636.777 234.64H642.729L637.689 246.064H633.849L636.777 234.64ZM657.138 268.432C655.058 268.432 653.186 268.064 651.522 267.328C649.89 266.56 648.594 265.536 647.634 264.256C646.674 262.944 646.162 261.488 646.098 259.888H651.762C651.858 261.008 652.386 261.952 653.346 262.72C654.338 263.456 655.57 263.824 657.042 263.824C658.578 263.824 659.762 263.536 660.594 262.96C661.458 262.352 661.89 261.584 661.89 260.656C661.89 259.664 661.41 258.928 660.45 258.448C659.522 257.968 658.034 257.44 655.986 256.864C654.002 256.32 652.386 255.792 651.138 255.28C649.89 254.768 648.802 253.984 647.874 252.928C646.978 251.872 646.53 250.48 646.53 248.752C646.53 247.344 646.946 246.064 647.778 244.912C648.61 243.728 649.794 242.8 651.33 242.128C652.898 241.456 654.69 241.12 656.706 241.12C659.714 241.12 662.13 241.888 663.954 243.424C665.81 244.928 666.802 246.992 666.93 249.616H661.458C661.362 248.432 660.882 247.488 660.018 246.784C659.154 246.08 657.986 245.728 656.514 245.728C655.074 245.728 653.97 246 653.202 246.544C652.434 247.088 652.05 247.808 652.05 248.704C652.05 249.408 652.306 250 652.818 250.48C653.33 250.96 653.954 251.344 654.69 251.632C655.426 251.888 656.514 252.224 657.954 252.64C659.874 253.152 661.442 253.68 662.658 254.224C663.906 254.736 664.978 255.504 665.874 256.528C666.77 257.552 667.234 258.912 667.266 260.608C667.266 262.112 666.85 263.456 666.018 264.64C665.186 265.824 664.002 266.752 662.466 267.424C660.962 268.096 659.186 268.432 657.138 268.432ZM691.119 245.488C692.047 244.208 693.311 243.168 694.911 242.368C696.543 241.536 698.351 241.12 700.335 241.12C702.671 241.12 704.783 241.68 706.671 242.8C708.559 243.92 710.047 245.52 711.135 247.6C712.223 249.648 712.767 252 712.767 254.656C712.767 257.312 712.223 259.696 711.135 261.808C710.047 263.888 708.543 265.52 706.623 266.704C704.735 267.856 702.639 268.432 700.335 268.432C698.287 268.432 696.463 268.032 694.863 267.232C693.295 266.432 692.047 265.408 691.119 264.16V268H685.647V232.48H691.119V245.488ZM707.199 254.656C707.199 252.832 706.815 251.264 706.047 249.952C705.311 248.608 704.319 247.6 703.071 246.928C701.855 246.224 700.543 245.872 699.135 245.872C697.759 245.872 696.447 246.224 695.199 246.928C693.983 247.632 692.991 248.656 692.223 250C691.487 251.344 691.119 252.928 691.119 254.752C691.119 256.576 691.487 258.176 692.223 259.552C692.991 260.896 693.983 261.92 695.199 262.624C696.447 263.328 697.759 263.68 699.135 263.68C700.543 263.68 701.855 263.328 703.071 262.624C704.319 261.888 705.311 260.832 706.047 259.456C706.815 258.08 707.199 256.48 707.199 254.656ZM742.418 254.128C742.418 255.12 742.354 256.016 742.226 256.816H722.018C722.178 258.928 722.962 260.624 724.37 261.904C725.778 263.184 727.506 263.824 729.554 263.824C732.498 263.824 734.578 262.592 735.794 260.128H741.698C740.898 262.56 739.442 264.56 737.33 266.128C735.25 267.664 732.658 268.432 729.554 268.432C727.026 268.432 724.754 267.872 722.738 266.752C720.754 265.6 719.186 264 718.034 261.952C716.914 259.872 716.354 257.472 716.354 254.752C716.354 252.032 716.898 249.648 717.986 247.6C719.106 245.52 720.658 243.92 722.642 242.8C724.658 241.68 726.962 241.12 729.554 241.12C732.05 241.12 734.274 241.664 736.226 242.752C738.178 243.84 739.698 245.376 740.786 247.36C741.874 249.312 742.418 251.568 742.418 254.128ZM736.706 252.4C736.674 250.384 735.954 248.768 734.546 247.552C733.138 246.336 731.394 245.728 729.314 245.728C727.426 245.728 725.81 246.336 724.466 247.552C723.122 248.736 722.322 250.352 722.066 252.4H736.706ZM754.187 246.016V260.656C754.187 261.648 754.411 262.368 754.859 262.816C755.339 263.232 756.139 263.44 757.259 263.44H760.619V268H756.299C753.835 268 751.947 267.424 750.635 266.272C749.323 265.12 748.667 263.248 748.667 260.656V246.016H745.547V241.552H748.667V234.976H754.187V241.552H760.619V246.016H754.187ZM772.047 246.016V260.656C772.047 261.648 772.271 262.368 772.719 262.816C773.199 263.232 773.999 263.44 775.119 263.44H778.479V268H774.159C771.695 268 769.807 267.424 768.495 266.272C767.183 265.12 766.527 263.248 766.527 260.656V246.016H763.407V241.552H766.527V234.976H772.047V241.552H778.479V246.016H772.047ZM807.762 254.128C807.762 255.12 807.698 256.016 807.57 256.816H787.362C787.522 258.928 788.306 260.624 789.714 261.904C791.122 263.184 792.85 263.824 794.898 263.824C797.842 263.824 799.922 262.592 801.138 260.128H807.042C806.242 262.56 804.786 264.56 802.674 266.128C800.594 267.664 798.002 268.432 794.898 268.432C792.37 268.432 790.098 267.872 788.082 266.752C786.098 265.6 784.53 264 783.378 261.952C782.258 259.872 781.698 257.472 781.698 254.752C781.698 252.032 782.242 249.648 783.33 247.6C784.45 245.52 786.002 243.92 787.986 242.8C790.002 241.68 792.306 241.12 794.898 241.12C797.394 241.12 799.618 241.664 801.57 242.752C803.522 243.84 805.042 245.376 806.13 247.36C807.218 249.312 807.762 251.568 807.762 254.128ZM802.05 252.4C802.018 250.384 801.298 248.768 799.89 247.552C798.482 246.336 796.738 245.728 794.658 245.728C792.77 245.728 791.154 246.336 789.81 247.552C788.466 248.736 787.666 250.352 787.41 252.4H802.05ZM818.619 245.392C819.419 244.048 820.475 243.008 821.787 242.272C823.131 241.504 824.715 241.12 826.539 241.12V246.784H825.147C823.003 246.784 821.371 247.328 820.251 248.416C819.163 249.504 818.619 251.392 818.619 254.08V268H813.147V241.552H818.619V245.392ZM849.51 232.48V268H844.038V232.48H849.51ZM868.166 268.432C865.67 268.432 863.414 267.872 861.398 266.752C859.382 265.6 857.798 264 856.646 261.952C855.494 259.872 854.918 257.472 854.918 254.752C854.918 252.064 855.51 249.68 856.694 247.6C857.878 245.52 859.494 243.92 861.542 242.8C863.59 241.68 865.878 241.12 868.406 241.12C870.934 241.12 873.222 241.68 875.27 242.8C877.318 243.92 878.934 245.52 880.118 247.6C881.302 249.68 881.894 252.064 881.894 254.752C881.894 257.44 881.286 259.824 880.07 261.904C878.854 263.984 877.19 265.6 875.078 266.752C872.998 267.872 870.694 268.432 868.166 268.432ZM868.166 263.68C869.574 263.68 870.886 263.344 872.102 262.672C873.35 262 874.358 260.992 875.126 259.648C875.894 258.304 876.278 256.672 876.278 254.752C876.278 252.832 875.91 251.216 875.174 249.904C874.438 248.56 873.462 247.552 872.246 246.88C871.03 246.208 869.718 245.872 868.31 245.872C866.902 245.872 865.59 246.208 864.374 246.88C863.19 247.552 862.246 248.56 861.542 249.904C860.838 251.216 860.486 252.832 860.486 254.752C860.486 257.6 861.206 259.808 862.646 261.376C864.118 262.912 865.958 263.68 868.166 263.68ZM898.775 268.432C896.279 268.432 894.023 267.872 892.007 266.752C889.991 265.6 888.407 264 887.255 261.952C886.103 259.872 885.527 257.472 885.527 254.752C885.527 252.064 886.119 249.68 887.303 247.6C888.487 245.52 890.103 243.92 892.151 242.8C894.199 241.68 896.487 241.12 899.015 241.12C901.543 241.12 903.831 241.68 905.879 242.8C907.927 243.92 909.543 245.52 910.727 247.6C911.911 249.68 912.503 252.064 912.503 254.752C912.503 257.44 911.895 259.824 910.679 261.904C909.463 263.984 907.799 265.6 905.687 266.752C903.607 267.872 901.303 268.432 898.775 268.432ZM898.775 263.68C900.183 263.68 901.495 263.344 902.711 262.672C903.959 262 904.967 260.992 905.735 259.648C906.503 258.304 906.887 256.672 906.887 254.752C906.887 252.832 906.519 251.216 905.783 249.904C905.047 248.56 904.071 247.552 902.855 246.88C901.639 246.208 900.327 245.872 898.919 245.872C897.511 245.872 896.199 246.208 894.983 246.88C893.799 247.552 892.855 248.56 892.151 249.904C891.447 251.216 891.095 252.832 891.095 254.752C891.095 257.6 891.815 259.808 893.255 261.376C894.727 262.912 896.567 263.68 898.775 263.68ZM928.377 254.8L940.569 268H933.177L923.385 256.624V268H917.913V232.48H923.385V253.12L932.985 241.552H940.569L928.377 254.8ZM947.275 238.048C946.283 238.048 945.451 237.712 944.779 237.04C944.107 236.368 943.771 235.536 943.771 234.544C943.771 233.552 944.107 232.72 944.779 232.048C945.451 231.376 946.283 231.04 947.275 231.04C948.235 231.04 949.051 231.376 949.723 232.048C950.395 232.72 950.731 233.552 950.731 234.544C950.731 235.536 950.395 236.368 949.723 237.04C949.051 237.712 948.235 238.048 947.275 238.048ZM949.963 241.552V268H944.491V241.552H949.963ZM970.491 241.12C972.571 241.12 974.427 241.552 976.059 242.416C977.723 243.28 979.019 244.56 979.947 246.256C980.875 247.952 981.339 250 981.339 252.4V268H975.915V253.216C975.915 250.848 975.323 249.04 974.139 247.792C972.955 246.512 971.339 245.872 969.291 245.872C967.243 245.872 965.611 246.512 964.395 247.792C963.211 249.04 962.619 250.848 962.619 253.216V268H957.147V241.552H962.619V244.576C963.515 243.488 964.651 242.64 966.027 242.032C967.435 241.424 968.923 241.12 970.491 241.12ZM998.975 241.12C1001.02 241.12 1002.83 241.536 1004.4 242.368C1006 243.168 1007.25 244.176 1008.14 245.392V241.552H1013.66V268.432C1013.66 270.864 1013.15 273.024 1012.13 274.912C1011.1 276.832 1009.61 278.336 1007.66 279.424C1005.74 280.512 1003.44 281.056 1000.75 281.056C997.167 281.056 994.191 280.208 991.823 278.512C989.455 276.848 988.111 274.576 987.791 271.696H993.215C993.631 273.072 994.511 274.176 995.855 275.008C997.231 275.872 998.863 276.304 1000.75 276.304C1002.96 276.304 1004.73 275.632 1006.08 274.288C1007.45 272.944 1008.14 270.992 1008.14 268.432V264.016C1007.21 265.264 1005.95 266.32 1004.35 267.184C1002.78 268.016 1000.99 268.432 998.975 268.432C996.671 268.432 994.559 267.856 992.639 266.704C990.751 265.52 989.247 263.888 988.127 261.808C987.039 259.696 986.495 257.312 986.495 254.656C986.495 252 987.039 249.648 988.127 247.6C989.247 245.552 990.751 243.968 992.639 242.848C994.559 241.696 996.671 241.12 998.975 241.12ZM1008.14 254.752C1008.14 252.928 1007.76 251.344 1006.99 250C1006.25 248.656 1005.28 247.632 1004.06 246.928C1002.85 246.224 1001.53 245.872 1000.13 245.872C998.719 245.872 997.407 246.224 996.191 246.928C994.975 247.6 993.983 248.608 993.215 249.952C992.479 251.264 992.111 252.832 992.111 254.656C992.111 256.48 992.479 258.08 993.215 259.456C993.983 260.832 994.975 261.888 996.191 262.624C997.439 263.328 998.751 263.68 1000.13 263.68C1001.53 263.68 1002.85 263.328 1004.06 262.624C1005.28 261.92 1006.25 260.896 1006.99 259.552C1007.76 258.176 1008.14 256.576 1008.14 254.752ZM1031.49 254.752C1031.49 252.032 1032.04 249.648 1033.13 247.6C1034.25 245.52 1035.78 243.92 1037.73 242.8C1039.69 241.68 1041.93 241.12 1044.45 241.12C1047.65 241.12 1050.29 241.888 1052.37 243.424C1054.49 244.928 1055.91 247.088 1056.65 249.904H1050.74C1050.26 248.592 1049.49 247.568 1048.44 246.832C1047.38 246.096 1046.05 245.728 1044.45 245.728C1042.21 245.728 1040.42 246.528 1039.08 248.128C1037.77 249.696 1037.11 251.904 1037.11 254.752C1037.11 257.6 1037.77 259.824 1039.08 261.424C1040.42 263.024 1042.21 263.824 1044.45 263.824C1047.62 263.824 1049.72 262.432 1050.74 259.648H1056.65C1055.88 262.336 1054.44 264.48 1052.33 266.08C1050.21 267.648 1047.59 268.432 1044.45 268.432C1041.93 268.432 1039.69 267.872 1037.73 266.752C1035.78 265.6 1034.25 264 1033.13 261.952C1032.04 259.872 1031.49 257.472 1031.49 254.752ZM1073.57 268.432C1071.08 268.432 1068.82 267.872 1066.8 266.752C1064.79 265.6 1063.2 264 1062.05 261.952C1060.9 259.872 1060.32 257.472 1060.32 254.752C1060.32 252.064 1060.92 249.68 1062.1 247.6C1063.28 245.52 1064.9 243.92 1066.95 242.8C1069 241.68 1071.28 241.12 1073.81 241.12C1076.34 241.12 1078.63 241.68 1080.68 242.8C1082.72 243.92 1084.34 245.52 1085.52 247.6C1086.71 249.68 1087.3 252.064 1087.3 254.752C1087.3 257.44 1086.69 259.824 1085.48 261.904C1084.26 263.984 1082.6 265.6 1080.48 266.752C1078.4 267.872 1076.1 268.432 1073.57 268.432ZM1073.57 263.68C1074.98 263.68 1076.29 263.344 1077.51 262.672C1078.76 262 1079.76 260.992 1080.53 259.648C1081.3 258.304 1081.68 256.672 1081.68 254.752C1081.68 252.832 1081.32 251.216 1080.58 249.904C1079.84 248.56 1078.87 247.552 1077.65 246.88C1076.44 246.208 1075.12 245.872 1073.72 245.872C1072.31 245.872 1071 246.208 1069.78 246.88C1068.6 247.552 1067.65 248.56 1066.95 249.904C1066.24 251.216 1065.89 252.832 1065.89 254.752C1065.89 257.6 1066.61 259.808 1068.05 261.376C1069.52 262.912 1071.36 263.68 1073.57 263.68ZM1116.66 241.552V268H1111.19V264.88C1110.33 265.968 1109.19 266.832 1107.78 267.472C1106.41 268.08 1104.93 268.384 1103.37 268.384C1101.29 268.384 1099.41 267.952 1097.75 267.088C1096.12 266.224 1094.82 264.944 1093.86 263.248C1092.93 261.552 1092.47 259.504 1092.47 257.104V241.552H1097.89V256.288C1097.89 258.656 1098.49 260.48 1099.67 261.76C1100.85 263.008 1102.47 263.632 1104.52 263.632C1106.57 263.632 1108.18 263.008 1109.37 261.76C1110.58 260.48 1111.19 258.656 1111.19 256.288V241.552H1116.66ZM1133.48 268.432C1131.4 268.432 1129.53 268.064 1127.87 267.328C1126.23 266.56 1124.94 265.536 1123.98 264.256C1123.02 262.944 1122.51 261.488 1122.44 259.888H1128.11C1128.2 261.008 1128.73 261.952 1129.69 262.72C1130.68 263.456 1131.91 263.824 1133.39 263.824C1134.92 263.824 1136.11 263.536 1136.94 262.96C1137.8 262.352 1138.23 261.584 1138.23 260.656C1138.23 259.664 1137.75 258.928 1136.79 258.448C1135.87 257.968 1134.38 257.44 1132.33 256.864C1130.35 256.32 1128.73 255.792 1127.48 255.28C1126.23 254.768 1125.15 253.984 1124.22 252.928C1123.32 251.872 1122.87 250.48 1122.87 248.752C1122.87 247.344 1123.29 246.064 1124.12 244.912C1124.95 243.728 1126.14 242.8 1127.67 242.128C1129.24 241.456 1131.03 241.12 1133.05 241.12C1136.06 241.12 1138.47 241.888 1140.3 243.424C1142.15 244.928 1143.15 246.992 1143.27 249.616H1137.8C1137.71 248.432 1137.23 247.488 1136.36 246.784C1135.5 246.08 1134.33 245.728 1132.86 245.728C1131.42 245.728 1130.31 246 1129.55 246.544C1128.78 247.088 1128.39 247.808 1128.39 248.704C1128.39 249.408 1128.65 250 1129.16 250.48C1129.67 250.96 1130.3 251.344 1131.03 251.632C1131.77 251.888 1132.86 252.224 1134.3 252.64C1136.22 253.152 1137.79 253.68 1139 254.224C1140.25 254.736 1141.32 255.504 1142.22 256.528C1143.11 257.552 1143.58 258.912 1143.61 260.608C1143.61 262.112 1143.19 263.456 1142.36 264.64C1141.53 265.824 1140.35 266.752 1138.81 267.424C1137.31 268.096 1135.53 268.432 1133.48 268.432ZM1152.31 238.048C1151.31 238.048 1150.48 237.712 1149.81 237.04C1149.14 236.368 1148.8 235.536 1148.8 234.544C1148.8 233.552 1149.14 232.72 1149.81 232.048C1150.48 231.376 1151.31 231.04 1152.31 231.04C1153.27 231.04 1154.08 231.376 1154.75 232.048C1155.43 232.72 1155.76 233.552 1155.76 234.544C1155.76 235.536 1155.43 236.368 1154.75 237.04C1154.08 237.712 1153.27 238.048 1152.31 238.048ZM1154.99 241.552V268H1149.52V241.552H1154.99ZM1175.52 241.12C1177.6 241.12 1179.46 241.552 1181.09 242.416C1182.75 243.28 1184.05 244.56 1184.98 246.256C1185.91 247.952 1186.37 250 1186.37 252.4V268H1180.95V253.216C1180.95 250.848 1180.35 249.04 1179.17 247.792C1177.99 246.512 1176.37 245.872 1174.32 245.872C1172.27 245.872 1170.64 246.512 1169.43 247.792C1168.24 249.04 1167.65 250.848 1167.65 253.216V268H1162.18V241.552H1167.65V244.576C1168.55 243.488 1169.68 242.64 1171.06 242.032C1172.47 241.424 1173.95 241.12 1175.52 241.12Z" fill="white"/>
<path d="M447.46 184.22H421.27L416.77 197H406.06L428.47 134.36H440.35L462.76 197H451.96L447.46 184.22ZM444.58 175.85L434.41 146.78L424.15 175.85H444.58ZM506.143 154.79C507.883 152.39 510.253 150.44 513.253 148.94C516.313 147.38 519.703 146.6 523.423 146.6C527.803 146.6 531.763 147.65 535.303 149.75C538.843 151.85 541.633 154.85 543.673 158.75C545.713 162.59 546.733 167 546.733 171.98C546.733 176.96 545.713 181.43 543.673 185.39C541.633 189.29 538.813 192.35 535.213 194.57C531.673 196.73 527.743 197.81 523.423 197.81C519.583 197.81 516.163 197.06 513.163 195.56C510.223 194.06 507.883 192.14 506.143 189.8V197H495.883V130.4H506.143V154.79ZM536.293 171.98C536.293 168.56 535.573 165.62 534.133 163.16C532.753 160.64 530.893 158.75 528.553 157.49C526.273 156.17 523.813 155.51 521.173 155.51C518.593 155.51 516.133 156.17 513.793 157.49C511.513 158.81 509.653 160.73 508.213 163.25C506.833 165.77 506.143 168.74 506.143 172.16C506.143 175.58 506.833 178.58 508.213 181.16C509.653 183.68 511.513 185.6 513.793 186.92C516.133 188.24 518.593 188.9 521.173 188.9C523.813 188.9 526.273 188.24 528.553 186.92C530.893 185.54 532.753 183.56 534.133 180.98C535.573 178.4 536.293 175.4 536.293 171.98ZM602.329 170.99C602.329 172.85 602.209 174.53 601.969 176.03H564.079C564.379 179.99 565.849 183.17 568.489 185.57C571.129 187.97 574.369 189.17 578.209 189.17C583.729 189.17 587.629 186.86 589.909 182.24H600.979C599.479 186.8 596.749 190.55 592.789 193.49C588.889 196.37 584.029 197.81 578.209 197.81C573.469 197.81 569.209 196.76 565.429 194.66C561.709 192.5 558.769 189.5 556.609 185.66C554.509 181.76 553.459 177.26 553.459 172.16C553.459 167.06 554.479 162.59 556.519 158.75C558.619 154.85 561.529 151.85 565.249 149.75C569.029 147.65 573.349 146.6 578.209 146.6C582.889 146.6 587.059 147.62 590.719 149.66C594.379 151.7 597.229 154.58 599.269 158.3C601.309 161.96 602.329 166.19 602.329 170.99ZM591.619 167.75C591.559 163.97 590.209 160.94 587.569 158.66C584.929 156.38 581.659 155.24 577.759 155.24C574.219 155.24 571.189 156.38 568.669 158.66C566.149 160.88 564.649 163.91 564.169 167.75H591.619ZM624.396 155.78V183.23C624.396 185.09 624.816 186.44 625.656 187.28C626.556 188.06 628.056 188.45 630.156 188.45H636.456V197H628.356C623.736 197 620.196 195.92 617.736 193.76C615.276 191.6 614.046 188.09 614.046 183.23V155.78H608.196V147.41H614.046V135.08H624.396V147.41H636.456V155.78H624.396ZM657.882 155.78V183.23C657.882 185.09 658.302 186.44 659.142 187.28C660.042 188.06 661.542 188.45 663.642 188.45H669.942V197H661.842C657.222 197 653.682 195.92 651.222 193.76C648.762 191.6 647.532 188.09 647.532 183.23V155.78H641.682V147.41H647.532V135.08H657.882V147.41H669.942V155.78H657.882ZM724.848 170.99C724.848 172.85 724.728 174.53 724.488 176.03H686.598C686.898 179.99 688.368 183.17 691.008 185.57C693.648 187.97 696.888 189.17 700.728 189.17C706.248 189.17 710.148 186.86 712.428 182.24H723.498C721.998 186.8 719.268 190.55 715.308 193.49C711.408 196.37 706.548 197.81 700.728 197.81C695.988 197.81 691.728 196.76 687.948 194.66C684.228 192.5 681.288 189.5 679.128 185.66C677.028 181.76 675.978 177.26 675.978 172.16C675.978 167.06 676.998 162.59 679.038 158.75C681.138 154.85 684.048 151.85 687.768 149.75C691.548 147.65 695.868 146.6 700.728 146.6C705.408 146.6 709.578 147.62 713.238 149.66C716.898 151.7 719.748 154.58 721.788 158.3C723.828 161.96 724.848 166.19 724.848 170.99ZM714.138 167.75C714.078 163.97 712.728 160.94 710.088 158.66C707.448 156.38 704.178 155.24 700.278 155.24C696.738 155.24 693.708 156.38 691.188 158.66C688.668 160.88 687.168 163.91 686.688 167.75H714.138ZM745.205 154.61C746.705 152.09 748.685 150.14 751.145 148.76C753.665 147.32 756.635 146.6 760.055 146.6V157.22H757.445C753.425 157.22 750.365 158.24 748.265 160.28C746.225 162.32 745.205 165.86 745.205 170.9V197H734.945V147.41H745.205V154.61ZM859.465 147.41L844.075 197H833.275L823.285 160.37L813.295 197H802.495L787.015 147.41H797.455L807.805 187.28L818.335 147.41H829.045L839.125 187.1L849.385 147.41H859.465ZM863.713 171.98C863.713 167 864.733 162.59 866.773 158.75C868.873 154.91 871.693 151.94 875.233 149.84C878.833 147.68 882.793 146.6 887.113 146.6C891.013 146.6 894.403 147.38 897.283 148.94C900.223 150.44 902.563 152.33 904.303 154.61V147.41H914.653V197H904.303V189.62C902.563 191.96 900.193 193.91 897.193 195.47C894.193 197.03 890.773 197.81 886.933 197.81C882.673 197.81 878.773 196.73 875.233 194.57C871.693 192.35 868.873 189.29 866.773 185.39C864.733 181.43 863.713 176.96 863.713 171.98ZM904.303 172.16C904.303 168.74 903.583 165.77 902.143 163.25C900.763 160.73 898.933 158.81 896.653 157.49C894.373 156.17 891.913 155.51 889.273 155.51C886.633 155.51 884.173 156.17 881.893 157.49C879.613 158.75 877.753 160.64 876.313 163.16C874.933 165.62 874.243 168.56 874.243 171.98C874.243 175.4 874.933 178.4 876.313 180.98C877.753 183.56 879.613 185.54 881.893 186.92C884.233 188.24 886.693 188.9 889.273 188.9C891.913 188.9 894.373 188.24 896.653 186.92C898.933 185.6 900.763 183.68 902.143 181.16C903.583 178.58 904.303 175.58 904.303 172.16ZM972.769 147.41L942.349 220.31H931.729L941.809 196.19L922.279 147.41H933.709L947.659 185.21L962.149 147.41H972.769ZM1015.86 155.78V183.23C1015.86 185.09 1016.28 186.44 1017.12 187.28C1018.02 188.06 1019.52 188.45 1021.62 188.45H1027.92V197H1019.82C1015.2 197 1011.66 195.92 1009.2 193.76C1006.74 191.6 1005.51 188.09 1005.51 183.23V155.78H999.661V147.41H1005.51V135.08H1015.86V147.41H1027.92V155.78H1015.86ZM1058.89 197.81C1054.21 197.81 1049.98 196.76 1046.2 194.66C1042.42 192.5 1039.45 189.5 1037.29 185.66C1035.13 181.76 1034.05 177.26 1034.05 172.16C1034.05 167.12 1035.16 162.65 1037.38 158.75C1039.6 154.85 1042.63 151.85 1046.47 149.75C1050.31 147.65 1054.6 146.6 1059.34 146.6C1064.08 146.6 1068.37 147.65 1072.21 149.75C1076.05 151.85 1079.08 154.85 1081.3 158.75C1083.52 162.65 1084.63 167.12 1084.63 172.16C1084.63 177.2 1083.49 181.67 1081.21 185.57C1078.93 189.47 1075.81 192.5 1071.85 194.66C1067.95 196.76 1063.63 197.81 1058.89 197.81ZM1058.89 188.9C1061.53 188.9 1063.99 188.27 1066.27 187.01C1068.61 185.75 1070.5 183.86 1071.94 181.34C1073.38 178.82 1074.1 175.76 1074.1 172.16C1074.1 168.56 1073.41 165.53 1072.03 163.07C1070.65 160.55 1068.82 158.66 1066.54 157.4C1064.26 156.14 1061.8 155.51 1059.16 155.51C1056.52 155.51 1054.06 156.14 1051.78 157.4C1049.56 158.66 1047.79 160.55 1046.47 163.07C1045.15 165.53 1044.49 168.56 1044.49 172.16C1044.49 177.5 1045.84 181.64 1048.54 184.58C1051.3 187.46 1054.75 188.9 1058.89 188.9ZM1128.32 134.45V174.32C1128.32 179.06 1129.55 182.63 1132.01 185.03C1134.53 187.43 1138.01 188.63 1142.45 188.63C1146.95 188.63 1150.43 187.43 1152.89 185.03C1155.41 182.63 1156.67 179.06 1156.67 174.32V134.45H1166.93V174.14C1166.93 179.24 1165.82 183.56 1163.6 187.1C1161.38 190.64 1158.41 193.28 1154.69 195.02C1150.97 196.76 1146.86 197.63 1142.36 197.63C1137.86 197.63 1133.75 196.76 1130.03 195.02C1126.37 193.28 1123.46 190.64 1121.3 187.1C1119.14 183.56 1118.06 179.24 1118.06 174.14V134.45H1128.32ZM1190.55 134.45V197H1180.29V134.45H1190.55Z" fill="white"/>
<defs>
<filter id="filter0_d_41_19" x="63.9565" y="49.5911" width="281.957" height="319.409" filterUnits="userSpaceOnUse" color-interpolation-filters="sRGB">
<feFlood flood-opacity="0" result="BackgroundImageFix"/>
<feColorMatrix in="SourceAlpha" type="matrix" values="0 0 0 0 0 0 0 0 0 0 0 0 0 0 0 0 0 0 127 0" result="hardAlpha"/>
<feOffset dy="4"/>
<feGaussianBlur stdDeviation="2"/>
<feComposite in2="hardAlpha" operator="out"/>
<feColorMatrix type="matrix" values="0 0 0 0 0 0 0 0 0 0 0 0 0 0 0 0 0 0 0.25 0"/>
<feBlend mode="normal" in2="BackgroundImageFix" result="effect1_dropShadow_41_19"/>
<feBlend mode="normal" in="SourceGraphic" in2="effect1_dropShadow_41_19" result="shape"/>
</filter>
<linearGradient id="paint0_linear_41_19" x1="187.966" y1="-30" x2="300.519" y2="601.028" gradientUnits="userSpaceOnUse">
<stop stop-color="#66F5B9"/>
<stop offset="1" stop-color="#45D0FB"/>
</linearGradient>
<linearGradient id="paint1_linear_41_19" x1="-433.738" y1="-108.835" x2="-136.223" y2="1050.89" gradientUnits="userSpaceOnUse">
<stop stop-color="#FF820F"/>
<stop offset="1" stop-color="#FF1E1E"/>
</linearGradient>
<linearGradient id="paint2_linear_41_19" x1="-18.3675" y1="20.8685" x2="70.333" y2="299.081" gradientUnits="userSpaceOnUse">
<stop stop-color="#FF820F"/>
<stop offset="1" stop-color="#FF1E1E"/>
</linearGradient>
<linearGradient id="paint3_linear_41_19" x1="-18.3675" y1="20.8685" x2="70.333" y2="299.081" gradientUnits="userSpaceOnUse">
<stop stop-color="#FF820F"/>
<stop offset="1" stop-color="#FF1E1E"/>
</linearGradient>
<linearGradient id="paint4_linear_41_19" x1="-18.3675" y1="20.8685" x2="70.333" y2="299.081" gradientUnits="userSpaceOnUse">
<stop stop-color="#FF820F"/>
<stop offset="1" stop-color="#FF1E1E"/>
</linearGradient>
<linearGradient id="paint5_linear_41_19" x1="-18.3675" y1="20.8685" x2="70.333" y2="299.081" gradientUnits="userSpaceOnUse">
<stop stop-color="#FF820F"/>
<stop offset="1" stop-color="#FF1E1E"/>
</linearGradient>
<linearGradient id="paint6_linear_41_19" x1="-18.3675" y1="20.8685" x2="70.333" y2="299.081" gradientUnits="userSpaceOnUse">
<stop stop-color="#FF820F"/>
<stop offset="1" stop-color="#FF1E1E"/>
</linearGradient>
<linearGradient id="paint7_linear_41_19" x1="-19.6423" y1="95.616" x2="276.588" y2="538.254" gradientUnits="userSpaceOnUse">
<stop stop-color="#FF820F"/>
<stop offset="1" stop-color="#FF1E1E"/>
</linearGradient>
<linearGradient id="paint8_linear_41_19" x1="-19.6423" y1="95.616" x2="276.588" y2="538.254" gradientUnits="userSpaceOnUse">
<stop stop-color="#FF820F"/>
<stop offset="1" stop-color="#FF1E1E"/>
</linearGradient>
</defs>
</svg>
